<?xml version="1.0" standalone="no"?>
<!DOCTYPE svg PUBLIC "-//W3C//DTD SVG 20010904//EN"
 "http://www.w3.org/TR/2001/REC-SVG-20010904/DTD/svg10.dtd">
<svg version="1.0" xmlns="http://www.w3.org/2000/svg"
 width="840.000000pt" height="111.000000pt" viewBox="0 0 840.000000 111.000000"
 preserveAspectRatio="xMidYMid meet">

<g transform="translate(0.000000,111.000000) scale(0.100000,-0.100000)"
fill="#000000" stroke="none">
<path d="M447 873 c-19 -22 -119 -387 -115 -422 l3 -26 846 -3 c795 -2 848 -1
868 15 16 13 34 67 72 206 27 104 49 200 47 215 l-3 27 -851 3 c-801 2 -852 1
-867 -15z m1697 -12 c9 -14 -94 -383 -111 -403 -15 -17 -68 -18 -844 -18 -455
0 -830 4 -833 9 -8 13 94 384 112 404 14 16 67 17 843 17 487 0 830 -4 833 -9z"/>
<path d="M2302 872 c-17 -17 -41 -93 -104 -333 -19 -73 -20 -89 -9 -103 12
-14 94 -16 853 -16 l839 0 22 22 c31 32 134 413 116 434 -10 12 -139 14 -855
14 -804 0 -845 -1 -862 -18z m1698 -14 c0 -36 -101 -383 -116 -399 -17 -18
-45 -19 -845 -19 -455 0 -830 3 -833 8 -7 11 97 387 113 406 12 15 86 16 847
16 661 0 834 -3 834 -12z"/>
<path d="M4152 872 c-10 -10 -39 -100 -71 -219 -44 -167 -52 -205 -41 -218 11
-13 111 -15 854 -15 l843 0 20 23 c13 14 39 92 73 219 43 162 50 200 40 213
-11 13 -114 15 -856 15 -792 0 -845 -1 -862 -18z m1698 -19 c0 -44 -101 -389
-117 -400 -13 -10 -198 -13 -845 -13 -811 0 -828 0 -828 19 0 45 100 386 117
398 13 10 194 13 845 13 782 0 828 -1 828 -17z"/>
<path d="M6003 866 c-11 -13 -43 -112 -72 -221 -42 -156 -50 -199 -41 -211 10
-11 58 -14 269 -14 237 0 259 1 277 19 21 19 128 396 122 429 -3 15 -27 17
-270 20 l-266 2 -19 -24z m530 -3 c2 -5 -19 -95 -48 -202 -36 -130 -59 -199
-71 -208 -27 -19 -492 -19 -500 1 -8 22 95 389 113 404 19 13 498 18 506 5z"/>
<path d="M6686 871 c-26 -29 -127 -410 -115 -433 9 -17 28 -18 265 -18 144 0
263 4 273 10 10 5 23 22 29 37 24 61 103 375 100 396 -3 22 -3 22 -269 25
-251 2 -267 1 -283 -17z m527 -8 c3 -5 -18 -95 -47 -202 -37 -135 -58 -198
-71 -207 -15 -11 -71 -14 -256 -14 -148 0 -240 4 -244 10 -3 6 12 76 34 158
22 81 44 166 51 189 19 75 12 73 285 73 134 0 246 -3 248 -7z"/>
<path d="M7367 872 c-20 -22 -119 -383 -115 -420 l3 -27 261 -3 c238 -2 263
-1 282 15 15 13 35 71 72 208 28 104 50 201 48 215 l-3 25 -266 3 c-245 2
-267 1 -282 -16z m527 -10 c3 -5 -18 -94 -45 -198 -36 -134 -56 -194 -71 -206
-18 -16 -46 -18 -259 -18 -132 0 -240 4 -243 9 -9 14 94 383 111 404 15 15 40
17 259 17 134 0 245 -4 248 -8z"/>
<path d="M1520 350 c0 -5 5 -10 10 -10 6 0 10 -18 10 -41 0 -24 -4 -38 -10
-34 -5 3 -10 1 -10 -4 0 -6 14 -11 30 -11 17 0 30 5 30 11 0 5 -4 7 -10 4 -6
-4 -10 13 -10 44 0 44 -3 51 -20 51 -11 0 -20 -4 -20 -10z"/>
<path d="M1620 331 c0 -24 4 -28 19 -24 10 3 22 0 26 -7 10 -17 -15 -41 -36
-35 -11 4 -19 2 -19 -5 0 -7 13 -10 33 -8 28 3 32 6 32 33 0 23 -5 31 -22 33
-13 2 -23 10 -23 17 0 7 10 16 23 18 19 4 18 4 -5 6 -25 1 -28 -3 -28 -28z"/>
<path d="M1828 335 c-16 -35 0 -79 29 -83 25 -4 37 25 31 74 -4 40 -43 46 -60
9z m48 -12 c7 -27 -4 -56 -21 -55 -12 2 -19 47 -11 68 9 23 25 16 32 -13z"/>
<path d="M1937 353 c-10 -9 -8 -75 2 -91 26 -42 75 25 53 73 -11 23 -40 33
-55 18z m38 -46 c0 -40 -12 -51 -28 -26 -13 20 0 72 16 66 7 -2 12 -20 12 -40z"/>
<path d="M3370 350 c0 -5 5 -10 10 -10 6 0 10 -18 10 -41 0 -24 -4 -38 -10
-34 -5 3 -10 1 -10 -4 0 -6 14 -11 30 -11 17 0 30 5 30 11 0 5 -4 7 -10 4 -6
-4 -10 13 -10 44 0 44 -3 51 -20 51 -11 0 -20 -4 -20 -10z"/>
<path d="M3469 353 c-13 -77 -4 -105 29 -101 25 3 27 6 27 53 0 47 -2 50 -27
53 -16 2 -29 0 -29 -5z m44 -10 c9 -9 -13 -34 -24 -27 -14 8 -11 34 4 34 8 0
17 -3 20 -7z m2 -63 c0 -22 -29 -18 -33 3 -3 14 1 18 15 15 10 -2 18 -10 18
-18z"/>
<path d="M3678 335 c-16 -35 0 -79 29 -83 25 -4 37 25 31 74 -4 40 -43 46 -60
9z m48 -12 c7 -27 -4 -56 -21 -55 -12 2 -19 47 -11 68 9 23 25 16 32 -13z"/>
<path d="M3787 353 c-10 -9 -8 -75 2 -91 26 -42 75 25 53 73 -11 23 -40 33
-55 18z m38 -46 c0 -40 -12 -51 -28 -26 -13 20 0 72 16 66 7 -2 12 -20 12 -40z"/>
<path d="M5235 350 c-4 -7 2 -9 19 -4 21 5 26 3 26 -13 0 -11 -11 -30 -25 -43
-34 -32 -32 -40 10 -40 19 0 35 5 35 10 0 6 -10 10 -22 10 l-21 0 22 24 c29
31 24 60 -11 64 -14 2 -29 -2 -33 -8z"/>
<path d="M5340 350 c0 -5 5 -10 10 -10 6 0 10 -18 10 -41 0 -24 -4 -38 -10
-34 -5 3 -10 1 -10 -4 0 -6 14 -11 30 -11 17 0 30 5 30 11 0 5 -4 7 -10 4 -6
-4 -10 13 -10 44 0 44 -3 51 -20 51 -11 0 -20 -4 -20 -10z"/>
<path d="M5548 335 c-16 -35 0 -79 29 -83 25 -4 37 25 31 74 -4 40 -43 46 -60
9z m48 -12 c7 -27 -4 -56 -21 -55 -12 2 -19 47 -11 68 9 23 25 16 32 -13z"/>
<path d="M5657 353 c-10 -9 -8 -75 2 -91 26 -42 75 25 53 73 -11 23 -40 33
-55 18z m38 -46 c0 -40 -12 -51 -28 -26 -13 20 0 72 16 66 7 -2 12 -20 12 -40z"/>
<path d="M5915 350 c-4 -7 2 -9 19 -4 21 5 26 3 26 -13 0 -11 -11 -30 -25 -43
-34 -32 -32 -40 10 -40 19 0 35 5 35 10 0 6 -10 10 -22 10 l-21 0 22 24 c29
31 24 60 -11 64 -14 2 -29 -2 -33 -8z"/>
<path d="M6015 350 c-4 -7 2 -9 19 -4 21 5 26 3 26 -13 0 -11 -11 -30 -25 -43
-34 -32 -32 -40 10 -40 19 0 35 5 35 10 0 6 -10 10 -22 10 l-21 0 22 24 c29
31 24 60 -11 64 -14 2 -29 -2 -33 -8z"/>
<path d="M6228 335 c-16 -35 0 -79 29 -83 25 -4 37 25 31 74 -4 40 -43 46 -60
9z m48 -12 c7 -27 -4 -56 -21 -55 -12 2 -19 47 -11 68 9 23 25 16 32 -13z"/>
<path d="M6337 353 c-10 -9 -8 -75 2 -91 26 -42 75 25 53 73 -11 23 -40 33
-55 18z m38 -46 c0 -40 -12 -51 -28 -26 -13 20 0 72 16 66 7 -2 12 -20 12 -40z"/>
<path d="M6595 350 c-4 -7 2 -9 19 -4 21 5 26 3 26 -13 0 -11 -11 -30 -25 -43
-34 -32 -32 -40 10 -40 19 0 35 5 35 10 0 6 -10 10 -22 10 l-21 0 22 24 c29
31 24 60 -11 64 -14 2 -29 -2 -33 -8z"/>
<path d="M6700 352 c0 -6 9 -8 20 -5 22 6 29 -22 8 -31 -9 -3 -8 -8 5 -16 24
-16 5 -40 -26 -33 -17 5 -19 3 -11 -6 7 -7 22 -11 35 -9 22 3 24 8 24 53 0 47
-2 50 -27 53 -16 2 -28 -1 -28 -6z"/>
<path d="M6908 335 c-16 -35 0 -79 29 -83 25 -4 37 25 31 74 -4 40 -43 46 -60
9z m48 -12 c7 -27 -4 -56 -21 -55 -12 2 -19 47 -11 68 9 23 25 16 32 -13z"/>
<path d="M7017 353 c-10 -9 -8 -75 2 -91 26 -42 75 25 53 73 -11 23 -40 33
-55 18z m38 -46 c0 -40 -12 -51 -28 -26 -13 20 0 72 16 66 7 -2 12 -20 12 -40z"/>
<path d="M7298 335 c-16 -35 0 -79 29 -83 25 -4 37 25 31 74 -4 40 -43 46 -60
9z m48 -12 c7 -27 -4 -56 -21 -55 -12 2 -19 47 -11 68 9 23 25 16 32 -13z"/>
<path d="M7398 335 c-16 -35 0 -79 29 -83 25 -4 37 25 31 74 -4 40 -43 46 -60
9z m48 -12 c7 -27 -4 -56 -21 -55 -12 2 -19 47 -11 68 9 23 25 16 32 -13z"/>
<path d="M7608 335 c-16 -35 0 -79 29 -83 25 -4 37 25 31 74 -4 40 -43 46 -60
9z m48 -12 c7 -27 -4 -56 -21 -55 -12 2 -19 47 -11 68 9 23 25 16 32 -13z"/>
<path d="M7717 353 c-10 -9 -8 -75 2 -91 26 -42 75 25 53 73 -11 23 -40 33
-55 18z m38 -46 c0 -40 -12 -51 -28 -26 -13 20 0 72 16 66 7 -2 12 -20 12 -40z"/>
<path d="M1740 315 c0 -8 7 -15 15 -15 8 0 15 7 15 15 0 8 -7 15 -15 15 -8 0
-15 -7 -15 -15z"/>
<path d="M3590 315 c0 -8 7 -15 15 -15 8 0 15 7 15 15 0 8 -7 15 -15 15 -8 0
-15 -7 -15 -15z"/>
<path d="M5460 315 c0 -8 7 -15 15 -15 8 0 15 7 15 15 0 8 -7 15 -15 15 -8 0
-15 -7 -15 -15z"/>
<path d="M6140 315 c0 -8 7 -15 15 -15 8 0 15 7 15 15 0 8 -7 15 -15 15 -8 0
-15 -7 -15 -15z"/>
<path d="M6820 315 c0 -8 7 -15 15 -15 8 0 15 7 15 15 0 8 -7 15 -15 15 -8 0
-15 -7 -15 -15z"/>
<path d="M7520 315 c0 -8 7 -15 15 -15 8 0 15 7 15 15 0 8 -7 15 -15 15 -8 0
-15 -7 -15 -15z"/>
<path d="M1740 265 c0 -8 7 -15 15 -15 8 0 15 7 15 15 0 8 -7 15 -15 15 -8 0
-15 -7 -15 -15z"/>
<path d="M3590 265 c0 -8 7 -15 15 -15 8 0 15 7 15 15 0 8 -7 15 -15 15 -8 0
-15 -7 -15 -15z"/>
<path d="M5460 265 c0 -8 7 -15 15 -15 8 0 15 7 15 15 0 8 -7 15 -15 15 -8 0
-15 -7 -15 -15z"/>
<path d="M6140 265 c0 -8 7 -15 15 -15 8 0 15 7 15 15 0 8 -7 15 -15 15 -8 0
-15 -7 -15 -15z"/>
<path d="M6820 265 c0 -8 7 -15 15 -15 8 0 15 7 15 15 0 8 -7 15 -15 15 -8 0
-15 -7 -15 -15z"/>
<path d="M7520 265 c0 -8 7 -15 15 -15 8 0 15 7 15 15 0 8 -7 15 -15 15 -8 0
-15 -7 -15 -15z"/>
</g>
</svg>
