<?xml version="1.0" encoding="UTF-8" standalone="no"?>
<svg
   xmlns:dc="http://purl.org/dc/elements/1.1/"
   xmlns:cc="http://creativecommons.org/ns#"
   xmlns:rdf="http://www.w3.org/1999/02/22-rdf-syntax-ns#"
   xmlns:svg="http://www.w3.org/2000/svg"
   xmlns="http://www.w3.org/2000/svg"
   version="1.1"
   id="svg2"
   viewBox="0 0 115.29242 115.29366"
   height="32.538433mm"
   width="32.538082mm">
  <defs
     id="defs4">
    <clipPath
       clipPathUnits="userSpaceOnUse"
       id="clipPath3374">
      <path
         d="m 453,45.1 112.909,0 0,112.9 L 453,158 453,45.1 Z"
         id="path3376" />
    </clipPath>
    <clipPath
       clipPathUnits="userSpaceOnUse"
       id="clipPath3394">
      <path
         d="m 54,670.091 90.468,0 0,67.909 -90.468,0 0,-67.909 z"
         id="path3396" />
    </clipPath>
  </defs>
  <metadata
     id="metadata7">
    <rdf:RDF>
      <cc:Work
         rdf:about="">
        <dc:format>image/svg+xml</dc:format>
        <dc:type
           rdf:resource="http://purl.org/dc/dcmitype/StillImage" />
        <dc:title></dc:title>
      </cc:Work>
    </rdf:RDF>
  </metadata>
  <g
     transform="translate(-504.45058,-864.22069)"
     id="layer1">
    <g
       transform="matrix(1.25,0,0,-1.25,605.22704,977.52515)"
       id="g3366">
      <path
         id="path3368"
         style="fill:#231f20;fill-opacity:1;fill-rule:nonzero;stroke:none"
         d="M 0,0 -11.389,42.382 -0.479,45.373 1.09,39.531 9.988,39.529 9.989,0 0,0 Z" />
    </g>
    <g
       transform="matrix(1.25,0,0,-1.25,-75.460089,1048.0644)"
       id="g3370">
      <g
         clip-path="url(#clipPath3374)"
         id="g3372">
        <g
           transform="translate(548.903,135.4395)"
           id="g3378">
          <path
             id="path3380"
             style="fill:#231f20;fill-opacity:1;fill-rule:nonzero;stroke:none"
             d="m 0,0 5.676,0 0,11.352 -5.676,0 c -46.699,0 -84.691,-37.99 -84.691,-84.688 l 0,-5.672 11.348,0 0,5.672 C -73.343,-32.896 -40.438,0 0,0 m -56.445,-66.341 c -3.859,0 -6.988,-3.133 -6.988,-6.987 0,-3.857 3.129,-6.988 6.988,-6.988 3.859,0 6.985,3.131 6.985,6.988 0,3.854 -3.126,6.987 -6.985,6.987 m 56.441,56.436 c -3.862,0 -6.987,-3.129 -6.987,-6.986 0,-3.855 3.125,-6.987 6.987,-6.987 3.856,0 6.98,3.132 6.98,6.987 0,3.857 -3.124,6.986 -6.98,6.986 M -45.39,-39.06 c -3.34,1.932 -7.616,0.784 -9.545,-2.558 -1.929,-3.342 -0.78,-7.612 2.558,-9.545 3.342,-1.929 7.614,-0.78 9.542,2.562 1.929,3.338 0.784,7.614 -2.555,9.541 m 13.672,20.659 c -3.342,-1.933 -4.487,-6.201 -2.558,-9.544 1.929,-3.34 6.2,-4.487 9.544,-2.559 3.343,1.935 4.485,6.203 2.556,9.547 -1.93,3.34 -6.2,4.486 -9.542,2.556" />
        </g>
      </g>
    </g>
  </g>
</svg>
